<svg id="Layer_2" data-name="Layer 2" xmlns="http://www.w3.org/2000/svg" xmlns:xlink="http://www.w3.org/1999/xlink" viewBox="0 0 1000 1000"><defs><style>.cls-1{fill:url(#radial-gradient);}.cls-2{fill:#fff;}</style><radialGradient id="radial-gradient" cx="500" cy="500" r="500" gradientUnits="userSpaceOnUse"><stop offset="0" stop-color="#366eb6" stop-opacity="0.65"/><stop offset="0.64" stop-color="#3c6cb5"/><stop offset="1" stop-color="#3e6eb5"/></radialGradient></defs><title>logo-white</title><rect class="cls-1" width="1000" height="1000" rx="500"/><ellipse class="cls-2" cx="502.67" cy="317.49" rx="141.73" ry="91.49" transform="translate(-47.5 92.11) rotate(-10)"/><path class="cls-2" d="M418.21,397.7s17.45,217.72,20.47,254.77c1.75,21.56,2.19,27.74-.86,31.65-.72.93-2.21,8.23-8.29,13.31-5.87,4.89-15,11.21-23.15,11.89-6.58-4.44-8.73-36.44-12-61.73,0-.13,0-.26,0-.38-.84-8.1-29.87-277-30.32-284-2.61-40.44-1.24-37.51-1.24-37.51.22-8.69,11.45-6.54,18.12.08Z"/><rect class="cls-2" x="335.67" y="624.14" width="48.54" height="181.09" rx="23.03" transform="translate(758.27 20.66) rotate(56.59)"/><rect class="cls-2" x="580.8" y="451.39" width="49.28" height="265.63" rx="24.64" transform="translate(-173.29 265.72) rotate(-21.73)"/></svg>